<svg width="17" height="17" viewBox="0 0 17 17" fill="none" xmlns="http://www.w3.org/2000/svg">
<g clip-path="url(#clip0_212_1131)">
<path d="M15.3939 5.22282C15.3939 5.23411 15.3939 5.24822 15.3909 5.25668C15.3762 5.36676 15.3762 5.47683 15.385 5.58972C15.3909 5.61794 15.3968 5.64617 15.4203 5.66875C15.4586 5.71108 15.5174 5.70261 15.5409 5.65181C15.5527 5.62641 15.5527 5.60101 15.5468 5.57561C15.5174 5.46836 15.5115 5.35547 15.5086 5.24539C15.5086 5.23975 15.5086 5.23128 15.5086 5.22282C15.5409 5.21999 15.5703 5.21717 15.5968 5.21717C15.6174 5.21435 15.635 5.21153 15.6497 5.20306C15.6938 5.18048 15.6938 5.1325 15.6468 5.10992C15.6291 5.10146 15.6056 5.09863 15.585 5.09863C15.5115 5.10146 15.438 5.10146 15.3645 5.10146C15.338 5.10146 15.3115 5.10428 15.2851 5.1071C15.2704 5.10992 15.2527 5.10992 15.241 5.11839C15.2204 5.12686 15.2086 5.14097 15.2086 5.16072C15.2116 5.18048 15.2204 5.19177 15.241 5.20024C15.2527 5.20871 15.2674 5.21153 15.2821 5.21153C15.3174 5.21435 15.3556 5.21999 15.3939 5.22282ZM16.2025 5.35264C16.2025 5.35547 16.2055 5.35829 16.2055 5.35829C16.2172 5.43449 16.229 5.50787 16.2378 5.58125C16.2408 5.60665 16.2437 5.62923 16.2614 5.64899C16.2996 5.69697 16.3584 5.69132 16.3848 5.64052C16.3966 5.61512 16.3996 5.58972 16.3937 5.5615C16.376 5.47683 16.3672 5.39216 16.3496 5.31031C16.3378 5.25951 16.3231 5.21153 16.3084 5.16637C16.2996 5.13815 16.279 5.11839 16.2437 5.11557C16.2084 5.10992 16.182 5.12686 16.1672 5.15226C16.1496 5.17484 16.1349 5.19741 16.1231 5.22282C16.1026 5.26797 16.0849 5.31313 16.0614 5.35547C16.0584 5.36676 16.0555 5.37522 16.0496 5.38369C16.0467 5.37804 16.0438 5.37522 16.0438 5.37522C16.0055 5.30466 15.9702 5.23411 15.932 5.16637C15.9261 5.16072 15.9232 5.15508 15.9202 5.14944C15.9026 5.12404 15.882 5.10992 15.8497 5.10992C15.8203 5.11274 15.7967 5.12968 15.782 5.15508C15.7761 5.16637 15.7761 5.17484 15.7732 5.18613C15.7614 5.27644 15.7467 5.36676 15.735 5.45707C15.7291 5.50787 15.7262 5.55867 15.7262 5.60948C15.7232 5.62076 15.7262 5.63488 15.732 5.64617C15.7379 5.66874 15.7556 5.68286 15.7791 5.68568C15.8085 5.6885 15.8291 5.68003 15.8379 5.65745C15.8467 5.64052 15.8497 5.62641 15.8526 5.6123C15.8644 5.5615 15.8732 5.51352 15.882 5.46554C15.8879 5.43731 15.8908 5.41473 15.8997 5.38369C15.9055 5.39498 15.9114 5.40345 15.9173 5.41191C15.9438 5.44578 15.9702 5.47965 16.0026 5.50787C16.0349 5.53045 16.0614 5.52763 16.0878 5.50223C16.0937 5.49658 16.0967 5.49376 16.1026 5.48811C16.129 5.4486 16.1614 5.40909 16.1878 5.36958C16.1937 5.36393 16.1967 5.35829 16.2025 5.35264Z" fill="#3A3B7B"/>
<path d="M9.42701 5.27847C9.40656 5.33211 9.40266 5.37075 9.4121 5.40287C9.42253 5.44654 9.44958 5.46084 9.4863 5.44973C9.8317 5.36776 10.5891 5.60044 10.8695 5.66529C10.9356 5.67891 10.9894 5.59697 10.9443 5.52351C10.8784 5.45237 10.1214 5.14778 9.83253 5.13118C9.7193 5.12504 9.51688 5.09717 9.42701 5.27847Z" fill="#3A3B7B"/>
<path d="M12.387 4.29238C12.4238 4.31277 12.4444 4.33222 12.4545 4.35395C12.4697 4.38246 12.4617 4.40219 12.4363 4.41225C12.208 4.5192 11.9041 4.97963 11.7815 5.13843C11.7518 5.17496 11.6832 5.15373 11.6729 5.09366C11.675 5.02573 11.9443 4.52606 12.0946 4.38997C12.1537 4.33684 12.2512 4.23258 12.387 4.29238Z" fill="#3A3B7B"/>
<path d="M10.5688 4.06568C10.6131 4.03369 10.659 4.02248 10.6825 4.04327C11.027 4.32602 11.2097 4.77378 11.3228 5.18369C11.327 5.19324 11.3273 5.20695 11.3239 5.22124C11.3225 5.23346 11.3132 5.24637 11.2984 5.25636C11.2826 5.26739 11.269 5.27074 11.2626 5.26124C11.1117 5.06415 10.2494 4.29731 10.5688 4.06568Z" fill="#3A3B7B"/>
<path d="M3.27414 8.96799C3.3567 8.90899 3.44646 8.85988 3.54144 8.82177C3.64081 8.7945 3.74673 8.79901 3.84319 8.83466C3.93963 8.87031 4.02138 8.93511 4.07603 9.0193C4.12492 9.10327 4.14404 9.20023 4.13055 9.29555C4.11706 9.39086 4.07166 9.47938 4.00118 9.54779C3.94655 9.60325 3.88453 9.65155 3.81676 9.69146C3.51472 9.87875 3.20998 10.0558 2.90527 10.243C2.84291 10.2899 2.77677 10.332 2.70746 10.3688C2.60204 10.4192 2.48157 10.4327 2.36686 10.407C2.25216 10.3812 2.15045 10.3178 2.07931 10.2277C2.02613 10.1638 1.98125 10.0941 1.94566 10.0198C1.65698 9.43748 1.3576 8.85768 1.07961 8.26504C0.951305 8.00851 0.847059 7.71347 0.745485 7.42871C0.70154 7.34597 0.692958 7.25005 0.721568 7.16133C0.750177 7.0726 0.813721 6.99809 0.898682 6.95364C0.983643 6.90919 1.08332 6.89832 1.17651 6.92332C1.2697 6.94832 1.34905 7.00723 1.39769 7.0875C1.5472 7.27819 1.67955 7.48075 1.7933 7.69296C2.08198 8.20605 2.3573 8.71914 2.63529 9.21684C2.65148 9.24435 2.66933 9.27089 2.68875 9.29637C2.89799 9.21193 3.09478 9.10154 3.27414 8.96799Z" fill="#3A3B7B"/>
<path d="M6.25891 8.789C5.5987 9.53041 4.49207 9.34313 3.93609 8.38878C3.54048 7.71149 3.47099 6.59294 4.3317 5.88743C4.51549 5.73973 4.73527 5.63911 4.97053 5.59497C5.25899 5.55528 5.55314 5.60412 5.81094 5.73452C6.06873 5.86491 6.27698 6.07018 6.40594 6.321C6.87638 7.14196 6.80956 8.18866 6.25891 8.789ZM5.99162 7.05986C5.92147 6.85812 5.78076 6.68589 5.59334 6.57241C5.48728 6.49986 5.35841 6.46458 5.22844 6.47253C5.09844 6.48047 4.97529 6.53115 4.87966 6.61602C4.49743 6.94185 4.41722 7.71406 4.69521 8.17328C4.73065 8.24816 4.78268 8.31471 4.84771 8.36827C4.91274 8.42183 4.98918 8.4611 5.07168 8.48333C5.15417 8.50558 5.24072 8.51024 5.3253 8.49702C5.40988 8.48377 5.4904 8.45296 5.56128 8.40673C5.76848 8.25254 5.92049 8.04024 5.99617 7.79933C6.07187 7.5584 6.06747 7.30083 5.98361 7.06243L5.99162 7.05986Z" fill="#3A3B7B"/>
<path d="M8.95334 7.38281C8.88576 7.39676 8.81593 7.3976 8.74798 7.38525C8.68006 7.37291 8.61536 7.34767 8.55775 7.31099C8.50734 7.2833 8.46394 7.24526 8.43067 7.19955C8.39743 7.15385 8.37515 7.10165 8.36544 7.04669C8.35571 6.99174 8.35883 6.93541 8.3745 6.88174C8.39019 6.82807 8.4181 6.7784 8.45618 6.73631C8.52254 6.65172 8.61673 6.59116 8.72348 6.56443C9.00219 6.48679 9.2891 6.43946 9.57884 6.42333C9.6425 6.41623 9.70699 6.4214 9.76853 6.43854C9.83008 6.4557 9.88743 6.48446 9.93724 6.52319C9.98702 6.5619 10.0283 6.60978 10.0585 6.664C10.0888 6.71822 10.1074 6.7777 10.1134 6.83894C10.197 7.13974 10.2061 7.45514 10.1402 7.75995C9.8996 8.74509 9.07096 9.08372 8.14076 8.76817C7.87965 8.6838 7.65071 8.5266 7.48321 8.31665C7.2598 8.06382 7.1014 7.76418 7.02077 7.44183C6.95545 7.15477 6.9626 6.85692 7.04166 6.57308C7.12071 6.28924 7.26935 6.02765 7.47518 5.81018C7.67052 5.57381 7.92405 5.38779 8.21294 5.26886C8.39548 5.17229 8.60909 5.14484 8.81169 5.1919C8.85765 5.20411 8.89936 5.22789 8.93252 5.26079C8.96567 5.29369 8.98905 5.33451 9.00024 5.379C9.01142 5.4235 9.00999 5.47005 8.99611 5.51384C8.98222 5.55763 8.95639 5.59706 8.92129 5.62803C8.85453 5.68602 8.78201 5.73758 8.70476 5.78196C8.46712 5.92721 8.26033 6.11437 8.09532 6.33353C7.98716 6.47535 7.91267 6.63821 7.87711 6.81062C7.84154 6.98303 7.84578 7.16082 7.88951 7.33152C7.95013 7.56424 8.08465 7.77313 8.27441 7.92926C8.86246 8.44236 9.62694 7.94721 9.49329 7.24684C9.29818 7.29303 9.12709 7.34177 8.95334 7.38281Z" fill="#3A3B7B"/>
<path d="M12.5458 8.83011C11.6771 9.34321 10.6881 8.83011 10.4716 7.75262C10.3139 6.98298 10.6132 5.90547 11.6611 5.49499C11.884 5.40954 12.1258 5.37953 12.364 5.40777C12.6503 5.45806 12.9129 5.59331 13.1148 5.79445C13.3166 5.99558 13.4477 6.25246 13.4894 6.52888C13.6658 7.44475 13.2648 8.4222 12.5458 8.83011ZM12.8479 7.10354C12.8476 6.89042 12.769 6.68419 12.626 6.52118C12.5495 6.42036 12.439 6.34811 12.3132 6.31676C12.1875 6.28542 12.0543 6.29691 11.9364 6.3493C11.4659 6.54427 11.1345 7.25234 11.2547 7.77315C11.2639 7.85487 11.2916 7.93369 11.3358 8.00409C11.3801 8.07448 11.4398 8.13475 11.5108 8.1807C11.5818 8.22662 11.6625 8.25712 11.747 8.27004C11.8316 8.28293 11.9181 8.27796 12.0005 8.25545C12.2492 8.17207 12.4645 8.01626 12.6164 7.80974C12.7683 7.60323 12.8492 7.35633 12.8479 7.10354Z" fill="#3A3B7B"/>
<path d="M14.3679 9.04556C14.3548 9.13946 14.3033 9.22451 14.2249 9.28201C14.1464 9.33948 14.0474 9.36472 13.9495 9.35214C13.8517 9.33955 13.7631 9.29017 13.7032 9.21487C13.6433 9.13959 13.617 9.04453 13.6301 8.95064C13.6432 8.85674 13.6947 8.77169 13.7731 8.71419C13.8516 8.65669 13.9506 8.63148 14.0485 8.64406C14.1463 8.65665 14.2349 8.70601 14.2948 8.78131C14.3547 8.85661 14.381 8.95167 14.3679 9.04556ZM14.1353 5.58472C14.1862 5.5102 14.2607 5.45346 14.3479 5.42294C14.4351 5.39243 14.5303 5.38978 14.6191 5.4154C14.7095 5.4371 14.7893 5.48794 14.8453 5.55939C14.9013 5.63085 14.9299 5.71859 14.9265 5.80792C14.9147 5.95121 14.8924 6.09352 14.8597 6.23379C14.7715 6.70841 14.686 7.18301 14.5924 7.6525C14.5496 7.83979 14.4935 8.01937 14.432 8.2092C14.4106 8.26855 14.3749 8.32218 14.3278 8.3657C14.2985 8.39845 14.2611 8.42355 14.219 8.43871C14.1769 8.4539 14.1315 8.45863 14.087 8.45249C14.0425 8.44635 14.0003 8.42954 13.9644 8.40362C13.9284 8.37767 13.8999 8.34346 13.8814 8.30413C13.8496 8.23359 13.8324 8.15778 13.8306 8.08094C13.8306 7.76281 13.8306 7.44214 13.852 7.12144C13.8883 6.66378 13.9598 6.20931 14.0658 5.76174C14.0783 5.70178 14.1018 5.64444 14.1353 5.59242V5.58472Z" fill="#3A3B7B"/>
<path fill-rule="evenodd" clip-rule="evenodd" d="M2.14479 11.1071C2.11323 11.1747 2.10457 11.2501 2.12 11.3227C2.13026 11.4183 2.15279 11.5124 2.18709 11.6027C2.22991 11.7134 2.27783 11.8228 2.33691 11.9576C2.35049 11.9886 2.36469 12.021 2.37955 12.0551C2.45923 12.2378 2.55919 12.4713 2.69254 12.8091C2.73028 12.9051 2.7638 13.0019 2.79755 13.0993C2.81118 13.1387 2.82487 13.1782 2.83887 13.2178C2.88908 13.3585 2.97546 13.485 3.08997 13.5852C3.13859 13.6403 3.20308 13.6804 3.2754 13.7005C3.34913 13.7209 3.42754 13.7196 3.50049 13.6968C3.57343 13.6739 3.6375 13.6304 3.68437 13.5721C3.73032 13.5149 3.75765 13.446 3.76296 13.374C3.79278 13.2337 3.7826 13.0883 3.73346 12.9531C3.65548 12.7285 3.56664 12.5037 3.46419 12.2838L3.46372 12.2828C3.29519 11.9387 3.12388 11.5971 2.94447 11.2552L2.94313 11.2528C2.8906 11.1638 2.82235 11.0842 2.74142 11.0176C2.68889 10.9581 2.61642 10.9181 2.53639 10.9042C2.45466 10.8901 2.37036 10.9043 2.29855 10.9444C2.23062 10.9816 2.17677 11.0386 2.14479 11.1071Z" fill="#3A3B7B"/>
<path fill-rule="evenodd" clip-rule="evenodd" d="M4.7188 10.2597C4.45455 10.194 4.17858 10.1844 3.91011 10.2316C3.70218 10.2513 3.49767 10.2973 3.35566 10.3885C3.28343 10.4349 3.22504 10.4945 3.19255 10.5703C3.15989 10.6464 3.15572 10.7335 3.18249 10.8306C3.23136 11.0083 3.29482 11.1811 3.35806 11.3534L3.3683 11.3813L3.36855 11.3819C3.55896 11.8824 3.75118 12.3812 3.94515 12.8783C3.96777 12.9566 3.99976 13.0322 4.04047 13.1034L4.04123 13.1048C4.09501 13.1933 4.16398 13.2725 4.24524 13.339C4.28589 13.3756 4.33614 13.4009 4.39064 13.4122C4.44567 13.4236 4.5029 13.4203 4.5561 13.4026C4.60931 13.3849 4.65644 13.3536 4.69235 13.3119C4.72768 13.271 4.75081 13.2217 4.75931 13.1692C4.79437 13.0265 4.78313 12.877 4.72709 12.7407C4.70961 12.6948 4.69589 12.6479 4.68143 12.5985C4.67661 12.5821 4.67172 12.5653 4.66657 12.5483C5.11058 12.3817 5.58301 12.1577 5.74914 11.6366C5.81419 11.4566 5.81962 11.2616 5.76465 11.0784C5.70964 10.895 5.59677 10.7325 5.4416 10.6132C5.23042 10.4462 4.98372 10.3255 4.7188 10.2597ZM3.98633 10.8988C3.99507 10.8964 4.00388 10.8941 4.01272 10.8921C4.30178 10.8484 4.59752 10.9066 4.8455 11.0557C4.95478 11.1286 4.99955 11.2097 5.00723 11.2876C5.01517 11.3679 4.98475 11.4549 4.92364 11.5386C4.80817 11.6966 4.59746 11.823 4.40712 11.8466C4.26836 11.5399 4.12744 11.2208 3.98633 10.8988Z" fill="#3A3B7B"/>
<path d="M6.48057 9.69825C6.79526 9.55876 7.18506 9.53466 7.49009 9.63274C7.56691 9.65421 7.63355 9.70067 7.67863 9.76415C7.72342 9.82724 7.74409 9.90327 7.73719 9.97927C7.73674 10.0286 7.72412 10.0771 7.70038 10.1209C7.67621 10.1655 7.64122 10.2039 7.59836 10.2327C7.5555 10.2616 7.50602 10.2801 7.45413 10.2867C7.40221 10.2934 7.34942 10.2879 7.30017 10.2708L7.29643 10.2695L7.29291 10.2678C7.26771 10.2551 7.24095 10.2456 7.21326 10.2394L7.21151 10.239C6.99694 10.1843 6.79454 10.2749 6.72061 10.3863C6.68535 10.4394 6.68098 10.493 6.71034 10.5418C6.74179 10.594 6.81893 10.6526 6.97502 10.6943C7.01794 10.7056 7.06195 10.7166 7.10658 10.7277C7.23001 10.7583 7.35828 10.7902 7.48231 10.8344L7.48278 10.8345C8.05499 11.0435 8.26806 11.4763 8.19512 11.8833C8.12296 12.2858 7.77269 12.6522 7.24597 12.7386C7.0543 12.7794 6.85484 12.7714 6.66732 12.7155C6.47934 12.6595 6.30989 12.5572 6.17581 12.4189L6.17232 12.4153C6.12999 12.3631 6.10153 12.3019 6.0889 12.2369C6.07729 12.1783 6.08341 12.1177 6.1065 12.0622C6.12946 12.0071 6.16828 11.9595 6.21838 11.9247C6.27131 11.8853 6.33511 11.8617 6.40189 11.8568C6.46844 11.8519 6.53504 11.8657 6.59348 11.8967C6.65186 11.9237 6.70615 11.9583 6.75488 11.9993L6.7558 12.0001C6.84202 12.0758 6.94632 12.0955 7.04635 12.0772C7.14783 12.0587 7.24326 12.0011 7.30463 11.9246C7.36561 11.8486 7.39009 11.7583 7.36103 11.6707C7.3318 11.5825 7.24391 11.4836 7.05079 11.4009C7.0003 11.3803 6.94796 11.3637 6.89351 11.3476C6.87883 11.3432 6.8639 11.3389 6.84879 11.3345C6.80853 11.3228 6.7671 11.3107 6.72648 11.2974C6.69851 11.2882 6.67075 11.2795 6.64327 11.2709C6.56815 11.2475 6.49492 11.2246 6.42444 11.1939C6.27104 11.1437 6.13851 11.0475 6.04658 10.9194C5.95427 10.7907 5.90782 10.6369 5.91414 10.4808C5.91464 10.1005 6.1642 9.8385 6.48057 9.69825Z" fill="#3A3B7B"/>
<path d="M10.4701 9.65801C10.409 9.62941 10.3416 9.61583 10.2737 9.61849C10.2059 9.62118 10.1398 9.64001 10.0814 9.67335C10.0235 9.70645 9.9749 9.75279 9.9401 9.80826C9.90821 9.85498 9.88613 9.90722 9.87512 9.96208C9.86411 10.0169 9.86438 10.0732 9.87588 10.1279C9.88725 10.1982 9.89984 10.2665 9.91229 10.3339C9.93289 10.4455 9.95293 10.5545 9.96615 10.6657L9.96665 10.6685C9.99675 10.8428 10.0125 11.0192 10.0139 11.1959L10.0141 11.1984C10.0243 11.3892 9.9566 11.5763 9.82535 11.72L9.82327 11.7226C9.78056 11.7751 9.72347 11.8152 9.65835 11.8383C9.59325 11.8615 9.52273 11.8668 9.45465 11.8537C9.38657 11.8406 9.32364 11.8096 9.27289 11.7641C9.22214 11.7186 9.18553 11.6603 9.16726 11.596C9.12826 11.4605 9.10569 11.3212 9.09995 11.1807L9.16657 10.1627C9.16756 10.1494 9.16868 10.1358 9.16982 10.122C9.17235 10.0911 9.17495 10.0596 9.17603 10.0302C9.1776 9.98703 9.17625 9.94258 9.16576 9.90051C9.15502 9.85751 9.1346 9.8166 9.09838 9.78177C9.06251 9.74729 9.01409 9.72185 8.95316 9.70453C8.84298 9.67392 8.74982 9.67489 8.67219 9.70651C8.59452 9.73813 8.5413 9.79684 8.50364 9.86466C8.46627 9.93191 8.44226 10.0115 8.4241 10.0913C8.41063 10.1504 8.3998 10.2126 8.38952 10.2717C8.38595 10.2921 8.38248 10.3121 8.37896 10.3315L8.37887 10.3321C8.32381 10.6563 8.30743 10.9856 8.33002 11.3134C8.33424 11.4906 8.37273 11.6654 8.44356 11.8291C8.52348 12.0402 8.66822 12.2232 8.8587 12.3538C9.04958 12.4846 9.27735 12.5568 9.51188 12.5606C9.7464 12.5644 9.9766 12.4997 10.172 12.3751C10.3671 12.2507 10.5182 12.0724 10.6055 11.8639C10.7276 11.5982 10.785 11.3092 10.7731 11.019C10.766 10.8071 10.7539 10.5936 10.742 10.3812C10.7361 10.277 10.7303 10.1731 10.725 10.0697C10.7224 9.9661 10.6868 9.86574 10.623 9.7821C10.5835 9.72922 10.531 9.68658 10.4701 9.65801Z" fill="#3A3B7B"/>
<path d="M12.6298 11.2541C12.6236 11.2617 12.6171 11.2695 12.6102 11.2776C12.5606 11.0028 12.5146 10.7281 12.4685 10.453C12.452 10.3543 12.4354 10.2551 12.4187 10.1563L12.4168 10.1453L12.4107 10.1357C12.3992 10.1178 12.3981 10.1002 12.3981 10.0627V10.0584L12.3974 10.0541C12.3849 9.97667 12.3484 9.9046 12.2927 9.84734C12.2371 9.79024 12.1649 9.7505 12.0855 9.73325C12.0062 9.71448 11.9229 9.71862 11.846 9.74515C11.7693 9.77163 11.7025 9.8192 11.6539 9.88191C11.6134 9.93004 11.5803 9.98342 11.5554 10.0405C11.499 10.1633 11.4422 10.2865 11.3851 10.41L11.3842 10.4122C11.2418 10.7205 11.0985 11.0309 10.9593 11.3438L10.9589 11.3448C10.8734 11.5477 10.8029 11.7614 10.7326 11.9745C10.7186 12.0171 10.7046 12.0596 10.6904 12.102C10.665 12.1692 10.654 12.2407 10.6578 12.3121C10.6531 12.376 10.6691 12.4398 10.7035 12.4947C10.7385 12.5509 10.7911 12.595 10.8536 12.621C10.9199 12.6489 10.9941 12.6548 11.0643 12.6378C11.1344 12.6209 11.1966 12.582 11.2412 12.5275C11.2981 12.4602 11.3471 12.3869 11.387 12.3092C11.5049 12.0778 11.6176 11.8435 11.7298 11.6103C11.7732 11.5201 11.8153 11.4393 11.8633 11.3513C11.8666 11.3621 11.8699 11.3727 11.8734 11.3833C11.9237 11.5958 12.0086 11.7993 12.1249 11.9863C12.1469 12.026 12.1776 12.0606 12.2148 12.0879C12.2524 12.1155 12.2959 12.1348 12.3422 12.1447C12.3884 12.1545 12.4363 12.1546 12.4826 12.1448C12.5288 12.1351 12.5724 12.1157 12.6101 12.0882L12.6847 12.0346L13.2635 11.5667L13.2293 11.776C13.1823 12.0638 13.1357 12.3493 13.0861 12.6347C13.0537 12.7612 13.0538 12.8934 13.0863 13.0199C13.1004 13.0911 13.1362 13.1566 13.1893 13.2081C13.2428 13.2601 13.3114 13.2954 13.3861 13.3095C13.4608 13.3235 13.5382 13.3157 13.6082 13.2871C13.6772 13.2588 13.7359 13.2116 13.7769 13.1514C13.8723 13.0378 13.9317 12.9002 13.948 12.755C13.9726 12.55 14.0004 12.3422 14.0281 12.1345C14.0601 11.8951 14.0921 11.6557 14.1191 11.4209L14.1192 11.4202C14.1452 11.1632 14.1578 10.9052 14.1569 10.647C14.1626 10.5654 14.1415 10.4841 14.0964 10.4146C14.0511 10.3449 13.9841 10.2907 13.9049 10.2597C13.8224 10.2237 13.7302 10.2141 13.6417 10.2323C13.5537 10.2503 13.4741 10.2948 13.4144 10.3593C13.3076 10.4541 13.2075 10.5555 13.1146 10.6629L13.1139 10.6636C13.0125 10.7849 12.9118 10.9086 12.8117 11.0315C12.7508 11.1062 12.6901 11.1808 12.6298 11.2541Z" fill="#3A3B7B"/>
</g>
<defs>
<clipPath id="clip0_212_1131">
<rect width="15.6917" height="9.68213" fill="white" transform="translate(0.704956 4.03271)"/>
</clipPath>
</defs>
</svg>
