<svg width="17" height="17" viewBox="0 0 17 17" fill="none" xmlns="http://www.w3.org/2000/svg">
<g clip-path="url(#clip0_212_1121)">
<path fill-rule="evenodd" clip-rule="evenodd" d="M4.7509 2.08057C6.59477 2.08057 8.08956 3.57534 8.08956 5.41923V2.08057H11.4282C13.2721 2.08057 14.7669 3.57534 14.7669 5.41923C14.7669 7.26311 13.2721 8.7579 11.4282 8.7579C13.2721 8.7579 14.7669 10.2527 14.7669 12.0966C14.7669 13.0121 14.3983 13.8416 13.8015 14.4448L13.789 14.4574L13.7779 14.4684C13.1746 15.0661 12.3446 15.4352 11.4282 15.4352C10.5181 15.4352 9.69309 15.0711 9.09083 14.4805C9.08302 14.4729 9.0752 14.4651 9.06742 14.4574C9.06011 14.4501 9.05283 14.4427 9.04559 14.4353C8.45428 13.833 8.08956 13.0073 8.08956 12.0966C8.08956 13.9404 6.59477 15.4352 4.7509 15.4352C2.907 15.4352 1.41223 13.9404 1.41223 12.0966V8.7579H4.7509C2.907 8.7579 1.41223 7.26311 1.41223 5.41923C1.41223 3.57534 2.907 2.08057 4.7509 2.08057ZM7.42183 5.41923C7.42183 6.89435 6.22602 8.09016 4.7509 8.09016V2.7483C6.22602 2.7483 7.42183 3.94412 7.42183 5.41923ZM14.0992 12.0966C14.0992 10.6214 12.9033 9.42563 11.4282 9.42563C9.9531 9.42563 8.7573 10.6214 8.7573 12.0966H14.0992ZM2.07996 9.42563V12.0966C2.07996 13.5717 3.27578 14.7675 4.7509 14.7675C6.22602 14.7675 7.42183 13.5717 7.42183 12.0966V9.42563H2.07996ZM8.7573 8.09016V2.7483H11.4282C12.9033 2.7483 14.0992 3.94412 14.0992 5.41923C14.0992 6.89435 12.9033 8.09016 11.4282 8.09016H8.7573Z" fill="#263238"/>
</g>
<defs>
<clipPath id="clip0_212_1121">
<rect width="13.3547" height="13.3547" fill="white" transform="translate(1.41223 2.08057)"/>
</clipPath>
</defs>
</svg>
