<svg width="20" height="17" viewBox="0 0 20 17" fill="none" xmlns="http://www.w3.org/2000/svg">
<g clip-path="url(#clip0_212_1127)">
<path d="M19.2993 7.26097C19.3013 7.24705 19.3013 7.23297 19.2993 7.21905C19.3012 7.20771 19.3012 7.19614 19.2993 7.18477L19.1633 6.20566C19.1437 6.08852 19.0912 5.97903 19.0118 5.88945L18.9884 5.86278L18.9457 5.82087L16.5907 3.83217L16.6568 3.89694C16.6028 3.83354 16.5349 3.78284 16.4583 3.74855C16.3816 3.71427 16.298 3.69727 16.2138 3.69883H15.4988C15.3825 3.69657 15.2689 3.73281 15.1762 3.8017C15.0789 3.73323 14.9618 3.69717 14.842 3.69883H14.127C14.0332 3.69734 13.9407 3.72016 13.8588 3.76498C13.7769 3.8098 13.7086 3.87504 13.6607 3.95408C13.5868 4.06698 13.559 4.20301 13.5829 4.33506L13.6723 4.95224C13.6131 4.91933 13.5461 4.90226 13.478 4.90272H10.0155C9.89128 4.90348 9.76991 4.93918 9.66576 5.00558C9.56504 5.06738 9.48419 5.15588 9.4326 5.26083L9.16445 5.03606C9.05892 4.94033 8.91962 4.88844 8.77586 4.89129H3.34313C3.21846 4.89352 3.09656 4.92766 2.98951 4.99034C2.84305 5.07438 2.73572 5.21103 2.69027 5.37132L0.964859 11.0288C0.93262 11.1221 0.929448 11.2226 0.955751 11.3176C0.982053 11.4126 1.03664 11.4978 1.11253 11.5622C1.13231 11.5786 1.15307 11.5939 1.17471 11.6079C1.17471 11.6079 1.13973 11.585 1.1203 11.566L3.47527 13.5585C3.57489 13.6484 3.70513 13.6987 3.84053 13.6995H9.31602C9.44107 13.6963 9.56305 13.6608 9.66966 13.5966C9.72995 13.5643 9.78389 13.5217 9.82898 13.4709L9.84841 13.4442L9.8795 13.4061L9.90281 13.3642L10.1593 13.5814C10.2575 13.6677 10.3849 13.7152 10.5168 13.7147H16.0039C16.1289 13.7106 16.2506 13.6752 16.3576 13.6119C16.4165 13.5776 16.4701 13.5352 16.5169 13.4861L16.5363 13.4595L16.5674 13.4214C16.5839 13.3973 16.5983 13.3718 16.6102 13.3452C16.6229 13.3221 16.6333 13.2978 16.6412 13.2728L18.2151 8.10675V8.06102C18.217 8.04329 18.217 8.02541 18.2151 8.00769V7.97341C18.217 7.96204 18.217 7.95047 18.2151 7.9391C18.2169 7.91501 18.2169 7.89083 18.2151 7.86671H18.7203C18.7642 7.87067 18.8085 7.87067 18.8524 7.86671H18.8874C18.9158 7.8584 18.9432 7.84688 18.969 7.83243H19.0079L19.0778 7.7791L19.1089 7.75624L19.1633 7.68765V7.66481L19.2022 7.60004C19.2 7.58744 19.2 7.57455 19.2022 7.56195C19.2001 7.55577 19.2001 7.54908 19.2022 7.54289C19.2104 7.52056 19.2169 7.49762 19.2216 7.47431C19.2198 7.4668 19.2198 7.45896 19.2216 7.45145C19.2197 7.44011 19.2197 7.42851 19.2216 7.41717C19.2216 7.41717 19.2993 7.26858 19.2993 7.26097Z" fill="black"/>
<path d="M8.93514 5.32572C8.95578 5.34401 8.97019 5.36806 8.97643 5.39463C8.98271 5.4212 8.98049 5.449 8.97013 5.4743L7.24861 11.128C7.22693 11.1897 7.18258 11.2413 7.12425 11.2728C7.07679 11.3039 7.02186 11.3223 6.96491 11.3261H1.49334C1.44661 11.3239 1.40234 11.3049 1.36898 11.2728C1.34914 11.2548 1.33521 11.2314 1.32898 11.2056C1.32275 11.1798 1.3245 11.1528 1.33401 11.128L3.05942 5.4743C3.0793 5.4118 3.12226 5.35881 3.17989 5.32572C3.22813 5.29683 3.28281 5.27984 3.33922 5.27619H8.81079C8.85715 5.27663 8.90161 5.29434 8.93514 5.32572ZM6.07888 9.98889L7.1087 6.61342H4.22525L3.19931 9.98889H6.07888ZM14.158 5.38287C14.1767 5.40414 14.2 5.421 14.2263 5.43222C14.2525 5.44343 14.281 5.4487 14.3096 5.44763H15.0207C15.0478 5.44789 15.0745 5.44138 15.0983 5.42872C15.1221 5.41605 15.1422 5.39765 15.1567 5.37525C15.1694 5.35775 15.1783 5.33794 15.183 5.317C15.1876 5.29606 15.188 5.27441 15.1839 5.25334L15.044 4.24756C15.0307 4.20101 15.0068 4.15802 14.9741 4.12183C14.9554 4.10056 14.9321 4.0837 14.9059 4.07248C14.8796 4.06127 14.8511 4.056 14.8225 4.05707H14.1114C14.0843 4.05681 14.0576 4.06332 14.0338 4.07598C14.01 4.08865 13.9899 4.10705 13.9754 4.12945C13.9482 4.18279 13.9365 4.21708 13.9482 4.24756L14.092 5.25334C14.0993 5.30231 14.1225 5.34769 14.158 5.38287ZM16.4158 4.23994C16.4025 4.19338 16.3786 4.1504 16.3459 4.11421C16.328 4.09302 16.3054 4.07616 16.2797 4.06493C16.2541 4.0537 16.2262 4.0484 16.1982 4.04945H15.4832C15.4565 4.0487 15.4302 4.05504 15.4069 4.06778C15.3837 4.08052 15.3644 4.0992 15.3511 4.12183C15.3252 4.15563 15.314 4.19809 15.32 4.23994L15.4637 5.24571C15.4728 5.29417 15.4957 5.3391 15.5298 5.37525C15.5488 5.3961 15.5722 5.41268 15.5984 5.42386C15.6245 5.43504 15.6528 5.44055 15.6814 5.44001H16.3964C16.423 5.44036 16.4491 5.43385 16.4723 5.42115C16.4955 5.40844 16.5149 5.38999 16.5285 5.36763C16.5421 5.35058 16.5515 5.33078 16.5562 5.30969C16.5609 5.2886 16.5607 5.26674 16.5557 5.24571L16.4158 4.23994ZM13.5324 5.76384L13.4624 5.26857H10.0155C9.96136 5.2715 9.909 5.2886 9.86391 5.3181C9.8353 5.3334 9.81038 5.35461 9.79092 5.38026C9.77149 5.40592 9.75794 5.4354 9.75124 5.46668L9.46366 6.4115C9.45218 6.43511 9.44825 6.4616 9.45241 6.48745C9.45659 6.51329 9.46863 6.53728 9.48697 6.55628C9.51974 6.58648 9.56251 6.60408 9.60745 6.60581H13.7966L12.7668 9.98128H8.58929C8.53542 9.98248 8.48296 9.9983 8.43775 10.027C8.38278 10.0612 8.34264 10.1141 8.32504 10.1756L8.03359 11.1204C8.02408 11.1446 8.02158 11.171 8.02637 11.1965C8.03119 11.2221 8.04308 11.2458 8.06078 11.2652C8.09253 11.2974 8.13563 11.3165 8.18125 11.3185H13.6684C13.7251 11.3137 13.7798 11.2954 13.8277 11.2652C13.8851 11.2336 13.9281 11.1818 13.9482 11.1204L15.5259 5.95433H13.75C13.7218 5.95488 13.6938 5.94975 13.6678 5.93927C13.6417 5.92878 13.6181 5.91316 13.5984 5.89337C13.5663 5.85883 13.5436 5.8169 13.5324 5.77146V5.76384Z" fill="white"/>
</g>
<defs>
<clipPath id="clip0_212_1127">
<rect width="18.3627" height="10.016" fill="white" transform="translate(0.93811 3.69873)"/>
</clipPath>
</defs>
</svg>
