<svg width="17" height="17" viewBox="0 0 17 17" fill="none" xmlns="http://www.w3.org/2000/svg">
<g clip-path="url(#clip0_212_1124)">
<path fill-rule="evenodd" clip-rule="evenodd" d="M5.17755 5.40645L1.84363 8.70685C2.51047 9.367 3.27224 9.92336 4.10278 10.3586C4.33235 10.9614 4.69219 11.5268 5.18229 12.012C7.02621 13.8373 10.0157 13.8373 11.8596 12.012C12.3497 11.5268 12.7096 10.9614 12.9391 10.3586C13.7697 9.92336 14.5315 9.367 15.1983 8.70685L11.8671 5.40913C11.8646 5.40667 11.8621 5.4042 11.8596 5.40173C10.0157 3.57638 7.02621 3.57638 5.18229 5.40173C5.18071 5.40331 5.17913 5.40488 5.17755 5.40645ZM11.5406 10.9541C10.5691 11.2787 9.54917 11.4449 8.52096 11.4449C7.49275 11.4449 6.47289 11.2787 5.50134 10.9541C5.6066 11.0923 5.72282 11.225 5.85003 11.3509C7.32515 12.8112 9.71677 12.8112 11.1919 11.3509C11.3191 11.225 11.4353 11.0923 11.5406 10.9541ZM5.9185 5.99665C6.169 6.16048 6.43536 6.30068 6.71407 6.41497C7.28692 6.64987 7.9009 6.77077 8.52096 6.77077C9.14102 6.77077 9.755 6.64987 10.3278 6.41497C10.6066 6.30068 10.8729 6.16048 11.1234 5.99664C9.66672 4.6245 7.3752 4.62451 5.9185 5.99665Z" fill="#3B4158"/>
</g>
<defs>
<clipPath id="clip0_212_1124">
<rect width="13.3547" height="9.34826" fill="white" transform="translate(1.84363 4.03271)"/>
</clipPath>
</defs>
</svg>
