<svg width="18" height="17" viewBox="0 0 18 17" fill="none" xmlns="http://www.w3.org/2000/svg">
<g clip-path="url(#clip0_212_1151)">
<path d="M4.68724 5.36816C4.00925 5.36816 3.35903 5.63749 2.87962 6.11691L1.31503 7.6815C0.835614 8.16091 0.566284 8.81113 0.566284 9.48912C0.566284 10.901 1.71081 12.0455 3.12266 12.0455C3.80065 12.0455 4.45087 11.7762 4.93028 11.2967L6.01252 10.2145C6.01252 10.2145 6.01254 10.2145 6.01252 10.2145L9.1658 7.06122C9.39476 6.83226 9.7053 6.70363 10.0291 6.70363C10.5712 6.70363 11.0308 7.05695 11.1902 7.54588L12.1853 6.55071C11.7313 5.83966 10.9353 5.36816 10.0291 5.36816C9.35112 5.36816 8.7009 5.63749 8.22149 6.11691L3.98597 10.3524C3.757 10.5814 3.44646 10.71 3.12266 10.71C2.44837 10.71 1.90175 10.1634 1.90175 9.48912C1.90175 9.16532 2.03038 8.85478 2.25934 8.62581L3.82393 7.06122C4.0529 6.83226 4.36344 6.70363 4.68724 6.70363C5.22938 6.70363 5.68895 7.05697 5.8483 7.54591L6.84349 6.55073C6.3895 5.83967 5.59345 5.36816 4.68724 5.36816Z" fill="#394149"/>
<path d="M9.32779 10.3524C9.09883 10.5814 8.78829 10.71 8.46448 10.71C7.92244 10.71 7.46288 10.3568 7.30349 9.86795L6.30835 10.8631C6.76236 11.5741 7.55837 12.0455 8.46448 12.0455C9.14248 12.0455 9.79269 11.7762 10.2721 11.2967L14.5076 7.06122C14.7366 6.83226 15.0471 6.70363 15.3709 6.70363C16.0452 6.70363 16.5918 7.25025 16.5918 7.92454C16.5918 8.24834 16.4632 8.55888 16.2342 8.78785L14.6697 10.3524C14.4407 10.5814 14.1302 10.71 13.8063 10.71C13.2643 10.71 12.8047 10.3567 12.6453 9.86784L11.6502 10.863C12.1042 11.574 12.9002 12.0455 13.8063 12.0455C14.4843 12.0455 15.1346 11.7762 15.614 11.2967L17.1786 9.73216C17.658 9.25275 17.9273 8.60253 17.9273 7.92454C17.9273 6.51269 16.7828 5.36816 15.3709 5.36816C14.6929 5.36816 14.0427 5.63749 13.5633 6.11691L9.32779 10.3524Z" fill="#394149"/>
</g>
<defs>
<clipPath id="clip0_212_1151">
<rect width="17.3611" height="6.67733" fill="white" transform="translate(0.566284 5.36816)"/>
</clipPath>
</defs>
</svg>
