<svg width="17" height="17" viewBox="0 0 17 17" fill="none" xmlns="http://www.w3.org/2000/svg">
<g clip-path="url(#clip0_212_1147)">
<path d="M14.9709 4.6484C14.9709 4.80398 15.0986 4.9301 15.2561 4.9301H15.5413C15.6988 4.9301 15.8265 4.80398 15.8265 4.6484C15.8265 4.49282 15.6988 4.3667 15.5413 4.3667H15.2561C15.0986 4.3667 14.9709 4.49282 14.9709 4.6484Z" fill="#212326"/>
<path d="M6.7009 13.3811H8.08625L7.68294 12.9827C7.57599 12.8771 7.43091 12.8177 7.27966 12.8177H6.7009C4.49591 12.8177 2.70842 11.052 2.70842 8.8739C2.70842 6.69579 4.49591 4.9301 6.7009 4.9301H11.2637C13.4687 4.9301 15.2562 6.69579 15.2562 8.8739C15.2562 11.052 13.4687 12.8177 11.2637 12.8177H9.55688C9.32997 12.8177 9.11237 12.7287 8.95191 12.5702L8.47943 12.1034C8.21203 11.8393 7.84933 11.6909 7.47116 11.6909H6.7009C5.1259 11.6909 3.84913 10.4297 3.84913 8.8739C3.84913 7.3181 5.1259 6.0569 6.7009 6.0569H11.2637C12.8387 6.0569 14.1155 7.3181 14.1155 8.8739C14.1155 10.4297 12.8387 11.6909 11.2637 11.6909H10.1678C9.94087 11.6909 9.72326 11.6019 9.56281 11.4434L9.09031 10.9766C8.8229 10.7125 8.46022 10.5641 8.08205 10.5641H6.7009C5.75592 10.5641 4.98984 9.80736 4.98984 8.8739C4.98984 7.94043 5.75592 7.1837 6.7009 7.1837H11.2637C12.2087 7.1837 12.9748 7.94043 12.9748 8.8739C12.9748 9.79598 12.2273 10.5456 11.2982 10.5638L11.2981 10.5641H10.8807C10.6538 10.5641 10.4362 10.4751 10.2758 10.3166L9.80325 9.84984C9.58385 9.63309 9.30029 9.49429 8.99665 9.45145L8.98233 9.4373H6.7009C6.38591 9.4373 6.13055 9.18505 6.13055 8.8739C6.13055 8.56274 6.38591 8.3105 6.7009 8.3105H11.2637C11.5787 8.3105 11.8341 8.56274 11.8341 8.8739C11.8341 9.18505 11.5787 9.4373 11.2637 9.4373H10.123L10.5263 9.83569C10.6333 9.94134 10.7784 10.0007 10.9296 10.0007H11.2637C11.8937 10.0007 12.4045 9.49621 12.4045 8.8739C12.4045 8.25159 11.8937 7.7471 11.2637 7.7471H6.7009C6.07091 7.7471 5.56019 8.25159 5.56019 8.8739C5.56019 9.49621 6.07091 10.0007 6.7009 10.0007H8.795C9.02191 10.0007 9.23951 10.0897 9.39996 10.2482L9.87247 10.715C10.1399 10.9791 10.5026 11.1275 10.8807 11.1275H11.4063V11.1232C12.5999 11.0505 13.5452 10.0712 13.5452 8.8739C13.5452 7.62928 12.5237 6.6203 11.2637 6.6203H6.7009C5.44092 6.6203 4.41948 7.62928 4.41948 8.8739C4.41948 10.1185 5.44092 11.1275 6.7009 11.1275H8.08205C8.30896 11.1275 8.52657 11.2165 8.68702 11.375L9.15952 11.8418C9.42693 12.1059 9.78961 12.2543 10.1678 12.2543H11.2637C13.1537 12.2543 14.6859 10.7408 14.6859 8.8739C14.6859 7.00695 13.1537 5.4935 11.2637 5.4935H6.7009C4.81091 5.4935 3.27877 7.00695 3.27877 8.8739C3.27877 10.7408 4.81091 12.2543 6.7009 12.2543H7.47116C7.69807 12.2543 7.91567 12.3433 8.07612 12.5018L8.54863 12.9686C8.81603 13.2327 9.17871 13.3811 9.55688 13.3811H11.2637C13.7837 13.3811 15.8266 11.3632 15.8266 8.8739C15.8266 6.38464 13.7837 4.3667 11.2637 4.3667L6.7009 4.3667C4.18091 4.3667 2.13806 6.38464 2.13806 8.8739C2.13806 11.3632 4.18092 13.3811 6.7009 13.3811Z" fill="#212326"/>
</g>
<defs>
<clipPath id="clip0_212_1147">
<rect width="13.6885" height="9.0144" fill="white" transform="translate(2.13806 4.3667)"/>
</clipPath>
</defs>
</svg>
